Coordinates
version=1
nRows=14
nColumns=24
inDegrees=yes

Units are S.I. units (second, meters, Newtons, ...)
Angles are in degrees.

endheader
time	pelvis_tilt	pelvis_list	pelvis_rotation	pelvis_tx	pelvis_ty	pelvis_tz	hip_flexion_r	hip_adduction_r	hip_rotation_r	knee_angle_r	ankle_angle_r	subtalar_angle_r	mtp_angle_r	hip_flexion_l	hip_adduction_l	hip_rotation_l	knee_angle_l	ankle_angle_l	subtalar_angle_l	mtp_angle_l	lumbar_extension	lumbar_bending	lumbar_rotation
      0.00000000	   -147.26411273	   -109.72648515	    -45.75294252	      0.12926907	      0.66549408	      0.23271674	    -18.67033362	     59.80182751	    -26.88301928	     97.34166570	   -169.77158189	    -69.09432214	      0.00000000	    -31.98153582	     18.20871698	    192.13424314	    -86.94925773	    -34.89870104	     39.07044434	      0.00000000	     82.74540934	     -3.91609778	   -199.75621759
      0.00833333	   -147.26411273	   -109.72648515	    -45.75294252	      0.12926907	      0.66549408	      0.23271674	    -18.67033362	     59.80182751	    -26.88301928	     97.34166570	   -169.77158189	    -69.09432214	      0.00000000	    -31.98153582	     18.20871698	    192.13424314	    -86.94925773	    -34.89870104	     39.07044434	      0.00000000	     82.74540934	     -3.91609778	   -199.75621759
      0.01666667	   -147.26411273	   -109.72648515	    -45.75294252	      0.12926907	      0.66549408	      0.23271674	    -18.67033362	     59.80182751	    -26.88301928	     97.34166570	   -169.77158189	    -69.09432214	      0.00000000	    -31.98153582	     18.20871698	    192.13424314	    -86.94925773	    -34.89870104	     39.07044434	      0.00000000	     82.74540934	     -3.91609778	   -199.75621759
      0.02500000	   -147.26411273	   -109.72648515	    -45.75294252	      0.12926907	      0.66549408	      0.23271674	    -18.67033362	     59.80182751	    -26.88301928	     97.34166570	   -169.77158189	    -69.09432214	      0.00000000	    -31.98153582	     18.20871698	    192.13424314	    -86.94925773	    -34.89870104	     39.07044434	      0.00000000	     82.74540934	     -3.91609778	   -199.75621759
      0.03333333	   -147.26411273	   -109.72648515	    -45.75294252	      0.12926907	      0.66549408	      0.23271674	    -18.67033362	     59.80182751	    -26.88301928	     97.34166570	   -169.77158189	    -69.09432214	      0.00000000	    -31.98153582	     18.20871698	    192.13424314	    -86.94925773	    -34.89870104	     39.07044434	      0.00000000	     82.74540934	     -3.91609778	   -199.75621759
      0.04166667	   -147.26411273	   -109.72648515	    -45.75294252	      0.12926907	      0.66549408	      0.23271674	    -18.67033362	     59.80182751	    -26.88301928	     97.34166570	   -169.77158189	    -69.09432214	      0.00000000	    -31.98153582	     18.20871698	    192.13424314	    -86.94925773	    -34.89870104	     39.07044434	      0.00000000	     82.74540934	     -3.91609778	   -199.75621759
      0.05000000	   -147.26411273	   -109.72648515	    -45.75294252	      0.12926907	      0.66549408	      0.23271674	    -18.67033362	     59.80182751	    -26.88301928	     97.34166570	   -169.77158189	    -69.09432214	      0.00000000	    -31.98153582	     18.20871698	    192.13424314	    -86.94925773	    -34.89870104	     39.07044434	      0.00000000	     82.74540934	     -3.91609778	   -199.75621759
      0.05833333	   -147.26411273	   -109.72648515	    -45.75294252	      0.12926907	      0.66549408	      0.23271674	    -18.67033362	     59.80182751	    -26.88301928	     97.34166570	   -169.77158189	    -69.09432214	      0.00000000	    -31.98153582	     18.20871698	    192.13424314	    -86.94925773	    -34.89870104	     39.07044434	      0.00000000	     82.74540934	     -3.91609778	   -199.75621759
      0.06666667	   -147.26411273	   -109.72648515	    -45.75294252	      0.12926907	      0.66549408	      0.23271674	    -18.67033362	     59.80182751	    -26.88301928	     97.34166570	   -169.77158189	    -69.09432214	      0.00000000	    -31.98153582	     18.20871698	    192.13424314	    -86.94925773	    -34.89870104	     39.07044434	      0.00000000	     82.74540934	     -3.91609778	   -199.75621759
      0.07500000	   -147.26410928	   -109.72651505	    -45.75296041	      0.12926823	      0.66549227	      0.23271635	    -18.67029468	     59.80185604	    -26.88298854	     97.34166711	   -169.77158389	    -69.09431788	      0.00000000	    -31.98150958	     18.20873011	    192.13423251	    -86.94924926	    -34.89870352	     39.07044309	      0.00000000	     82.74538109	     -3.91611449	   -199.75621067
      0.08333333	   -147.26409705	   -109.72651071	    -45.75295312	      0.12927118	      0.66549510	      0.23271748	    -18.67031708	     59.80184466	    -26.88300831	     97.34167496	   -169.77158324	    -69.09431636	      0.00000000	    -31.98151160	     18.20874542	    192.13423237	    -86.94923252	    -34.89870493	     39.07044130	      0.00000000	     82.74535868	     -3.91612385	   -199.75620262
      0.09166667	   -147.26409750	   -109.72653694	    -45.75298724	      0.12926703	      0.66549173	      0.23271623	    -18.67026120	     59.80189583	    -26.88295905	     97.34166390	   -169.77158629	    -69.09431143	      0.00000000	    -31.98146665	     18.20875148	    192.13421491	    -86.94924075	    -34.89870797	     39.07044089	      0.00000000	     82.74533343	     -3.91614946	   -199.75619692
      0.10000000	   -147.26475959	   -109.72725394	    -45.75270638	      0.12926514	      0.66548708	      0.23271514	    -18.67078674	     59.80433194	    -26.88029814	     97.34247878	   -169.77354055	    -69.09169447	      0.00000000	    -31.98066901	     18.20777309	    192.12770473	    -86.93565483	    -34.89793417	     39.07021562	      0.00000000	     82.74327870	     -3.91672342	   -199.75771045
      0.10833333	   -147.26530334	   -109.72815471	    -45.75103856	      0.12926955	      0.66549339	      0.23272187	    -18.67380227	     59.80593033	    -26.87861261	     97.34622574	   -169.77301833	    -69.09135205	      0.00000000	    -31.97854378	     18.20601395	    192.11724625	    -86.91032713	    -34.89470915	     39.06916153	      0.00000000	     82.73956437	     -3.91899360	   -199.76057288
